<mxfile host="Electron" modified="2024-12-01T00:59:16.057Z" agent="Mozilla/5.0 (Windows NT 10.0; Win64; x64) AppleWebKit/537.36 (KHTML, like Gecko) draw.io/24.5.1 Chrome/124.0.6367.207 Electron/30.0.6 Safari/537.36" etag="rQXWthl236_d_PlhsNxv" version="24.5.1" type="device">
  <diagram name="PÃ¡gina-1" id="XmunYnaE-atD-5PqMJeq">
    <mxGraphModel dx="1434" dy="836" grid="1" gridSize="10" guides="1" tooltips="1" connect="1" arrows="1" fold="1" page="1" pageScale="1" pageWidth="827" pageHeight="1169" math="0" shadow="0">
      <root>
        <mxCell id="0" />
        <mxCell id="1" parent="0" />
        <mxCell id="L6j8hB0ihb2DYcCDX3N--1" value="" style="rounded=1;whiteSpace=wrap;html=1;labelBackgroundColor=none;" vertex="1" parent="1">
          <mxGeometry x="140" y="280" width="580" height="350" as="geometry" />
        </mxCell>
        <mxCell id="L6j8hB0ihb2DYcCDX3N--2" value="&lt;font style=&quot;font-size: 17px;&quot;&gt;Main Thread&lt;/font&gt;" style="text;html=1;align=center;verticalAlign=middle;whiteSpace=wrap;rounded=0;labelBackgroundColor=none;" vertex="1" parent="1">
          <mxGeometry x="140" y="280" width="120" height="80" as="geometry" />
        </mxCell>
        <mxCell id="L6j8hB0ihb2DYcCDX3N--3" value="" style="rounded=1;whiteSpace=wrap;html=1;labelBackgroundColor=none;" vertex="1" parent="1">
          <mxGeometry x="189.5" y="10" width="481" height="210" as="geometry" />
        </mxCell>
        <mxCell id="L6j8hB0ihb2DYcCDX3N--5" value="&lt;font style=&quot;font-size: 17px;&quot;&gt;I2C Thread&lt;/font&gt;" style="text;html=1;align=center;verticalAlign=middle;whiteSpace=wrap;rounded=0;labelBackgroundColor=none;" vertex="1" parent="1">
          <mxGeometry x="189.5" y="110" width="120" height="80" as="geometry" />
        </mxCell>
        <mxCell id="L6j8hB0ihb2DYcCDX3N--6" value="Accelerometer Module" style="rounded=0;whiteSpace=wrap;html=1;labelBackgroundColor=none;" vertex="1" parent="1">
          <mxGeometry x="210.5" y="30" width="120" height="60" as="geometry" />
        </mxCell>
        <mxCell id="L6j8hB0ihb2DYcCDX3N--7" value="Temp&amp;amp;Hum&lt;br&gt;Module" style="rounded=0;whiteSpace=wrap;html=1;labelBackgroundColor=none;" vertex="1" parent="1">
          <mxGeometry x="370.5" y="30" width="120" height="60" as="geometry" />
        </mxCell>
        <mxCell id="L6j8hB0ihb2DYcCDX3N--9" value="Color&lt;div&gt;Module&lt;/div&gt;" style="rounded=0;whiteSpace=wrap;html=1;labelBackgroundColor=none;" vertex="1" parent="1">
          <mxGeometry x="530.5" y="30" width="120" height="60" as="geometry" />
        </mxCell>
        <mxCell id="L6j8hB0ihb2DYcCDX3N--18" style="edgeStyle=orthogonalEdgeStyle;rounded=0;orthogonalLoop=1;jettySize=auto;html=1;entryX=0.5;entryY=1;entryDx=0;entryDy=0;startArrow=classic;startFill=1;labelBackgroundColor=none;fontColor=default;strokeWidth=3;" edge="1" parent="1" source="L6j8hB0ihb2DYcCDX3N--12" target="L6j8hB0ihb2DYcCDX3N--14">
          <mxGeometry relative="1" as="geometry">
            <mxPoint x="430" y="420" as="targetPoint" />
          </mxGeometry>
        </mxCell>
        <mxCell id="L6j8hB0ihb2DYcCDX3N--12" value="State Machine&lt;div&gt;Module&lt;/div&gt;" style="rounded=0;whiteSpace=wrap;html=1;labelBackgroundColor=none;" vertex="1" parent="1">
          <mxGeometry x="345.5" y="360" width="170" height="140" as="geometry" />
        </mxCell>
        <mxCell id="L6j8hB0ihb2DYcCDX3N--15" style="edgeStyle=orthogonalEdgeStyle;rounded=0;orthogonalLoop=1;jettySize=auto;html=1;entryX=0.75;entryY=1;entryDx=0;entryDy=0;startArrow=classic;startFill=1;labelBackgroundColor=none;fontColor=default;strokeWidth=3;" edge="1" parent="1" source="L6j8hB0ihb2DYcCDX3N--14" target="L6j8hB0ihb2DYcCDX3N--6">
          <mxGeometry relative="1" as="geometry" />
        </mxCell>
        <mxCell id="L6j8hB0ihb2DYcCDX3N--16" style="edgeStyle=orthogonalEdgeStyle;rounded=0;orthogonalLoop=1;jettySize=auto;html=1;entryX=0.5;entryY=1;entryDx=0;entryDy=0;startArrow=classic;startFill=1;labelBackgroundColor=none;fontColor=default;strokeWidth=3;" edge="1" parent="1" source="L6j8hB0ihb2DYcCDX3N--14" target="L6j8hB0ihb2DYcCDX3N--7">
          <mxGeometry relative="1" as="geometry" />
        </mxCell>
        <mxCell id="L6j8hB0ihb2DYcCDX3N--17" style="edgeStyle=orthogonalEdgeStyle;rounded=0;orthogonalLoop=1;jettySize=auto;html=1;entryX=0.25;entryY=1;entryDx=0;entryDy=0;startArrow=classic;startFill=1;labelBackgroundColor=none;fontColor=default;strokeWidth=3;" edge="1" parent="1" source="L6j8hB0ihb2DYcCDX3N--14" target="L6j8hB0ihb2DYcCDX3N--9">
          <mxGeometry relative="1" as="geometry" />
        </mxCell>
        <mxCell id="L6j8hB0ihb2DYcCDX3N--14" value="I2C Module" style="rounded=0;whiteSpace=wrap;html=1;labelBackgroundColor=none;" vertex="1" parent="1">
          <mxGeometry x="378.87" y="127.5" width="103.25" height="45" as="geometry" />
        </mxCell>
        <mxCell id="L6j8hB0ihb2DYcCDX3N--30" style="edgeStyle=orthogonalEdgeStyle;rounded=0;orthogonalLoop=1;jettySize=auto;html=1;entryX=0.25;entryY=1;entryDx=0;entryDy=0;labelBackgroundColor=none;fontColor=default;strokeWidth=3;" edge="1" parent="1" source="L6j8hB0ihb2DYcCDX3N--19" target="L6j8hB0ihb2DYcCDX3N--12">
          <mxGeometry relative="1" as="geometry" />
        </mxCell>
        <mxCell id="L6j8hB0ihb2DYcCDX3N--19" value="Button&lt;div&gt;Module&lt;/div&gt;" style="rounded=0;whiteSpace=wrap;html=1;labelBackgroundColor=none;" vertex="1" parent="1">
          <mxGeometry x="330.5" y="540" width="89.5" height="50" as="geometry" />
        </mxCell>
        <mxCell id="L6j8hB0ihb2DYcCDX3N--29" style="edgeStyle=orthogonalEdgeStyle;rounded=0;orthogonalLoop=1;jettySize=auto;html=1;entryX=0;entryY=0.5;entryDx=0;entryDy=0;exitX=0.5;exitY=0;exitDx=0;exitDy=0;startArrow=classic;startFill=1;labelBackgroundColor=none;fontColor=default;strokeWidth=3;" edge="1" parent="1" source="L6j8hB0ihb2DYcCDX3N--20" target="L6j8hB0ihb2DYcCDX3N--12">
          <mxGeometry relative="1" as="geometry" />
        </mxCell>
        <mxCell id="L6j8hB0ihb2DYcCDX3N--20" value="Brightness&lt;br&gt;Module" style="rounded=0;whiteSpace=wrap;html=1;labelBackgroundColor=none;" vertex="1" parent="1">
          <mxGeometry x="200" y="540" width="89.5" height="50" as="geometry" />
        </mxCell>
        <mxCell id="L6j8hB0ihb2DYcCDX3N--21" value="" style="rounded=1;whiteSpace=wrap;html=1;labelBackgroundColor=none;" vertex="1" parent="1">
          <mxGeometry x="770" y="320" width="240" height="240" as="geometry" />
        </mxCell>
        <mxCell id="L6j8hB0ihb2DYcCDX3N--22" value="&lt;font style=&quot;font-size: 17px;&quot;&gt;GPS Thread&lt;/font&gt;" style="text;html=1;align=center;verticalAlign=middle;whiteSpace=wrap;rounded=0;labelBackgroundColor=none;" vertex="1" parent="1">
          <mxGeometry x="770" y="320" width="120" height="80" as="geometry" />
        </mxCell>
        <mxCell id="L6j8hB0ihb2DYcCDX3N--25" value="GPS Module" style="rounded=0;whiteSpace=wrap;html=1;labelBackgroundColor=none;" vertex="1" parent="1">
          <mxGeometry x="838.37" y="390" width="103.25" height="80" as="geometry" />
        </mxCell>
        <mxCell id="L6j8hB0ihb2DYcCDX3N--26" style="edgeStyle=orthogonalEdgeStyle;rounded=0;orthogonalLoop=1;jettySize=auto;html=1;entryX=0;entryY=0.5;entryDx=0;entryDy=0;startArrow=classic;startFill=1;labelBackgroundColor=none;fontColor=default;strokeWidth=3;" edge="1" parent="1" source="L6j8hB0ihb2DYcCDX3N--12" target="L6j8hB0ihb2DYcCDX3N--25">
          <mxGeometry relative="1" as="geometry" />
        </mxCell>
        <mxCell id="L6j8hB0ihb2DYcCDX3N--31" style="edgeStyle=orthogonalEdgeStyle;rounded=0;orthogonalLoop=1;jettySize=auto;html=1;entryX=0.75;entryY=1;entryDx=0;entryDy=0;startArrow=classic;startFill=1;endArrow=none;endFill=0;labelBackgroundColor=none;fontColor=default;strokeWidth=3;" edge="1" parent="1" source="L6j8hB0ihb2DYcCDX3N--27" target="L6j8hB0ihb2DYcCDX3N--12">
          <mxGeometry relative="1" as="geometry" />
        </mxCell>
        <mxCell id="L6j8hB0ihb2DYcCDX3N--27" value="LED&lt;br&gt;Module" style="rounded=0;whiteSpace=wrap;html=1;labelBackgroundColor=none;" vertex="1" parent="1">
          <mxGeometry x="441" y="540" width="89.5" height="50" as="geometry" />
        </mxCell>
        <mxCell id="L6j8hB0ihb2DYcCDX3N--32" style="edgeStyle=orthogonalEdgeStyle;rounded=0;orthogonalLoop=1;jettySize=auto;html=1;entryX=1;entryY=0.75;entryDx=0;entryDy=0;exitX=0.5;exitY=0;exitDx=0;exitDy=0;startArrow=classic;startFill=1;labelBackgroundColor=none;fontColor=default;strokeWidth=3;" edge="1" parent="1" source="L6j8hB0ihb2DYcCDX3N--28" target="L6j8hB0ihb2DYcCDX3N--12">
          <mxGeometry relative="1" as="geometry" />
        </mxCell>
        <mxCell id="L6j8hB0ihb2DYcCDX3N--28" value="Moisture&lt;br&gt;Module" style="rounded=0;whiteSpace=wrap;html=1;labelBackgroundColor=none;" vertex="1" parent="1">
          <mxGeometry x="561" y="540" width="89.5" height="50" as="geometry" />
        </mxCell>
      </root>
    </mxGraphModel>
  </diagram>
</mxfile>
